Coordinates
version=1
nRows=14
nColumns=38
inDegrees=no

Units are S.I. units (second, meters, Newtons, ...)
If the header above contains a line with 'inDegrees', this indicates whether rotational values are in degrees (yes) or radians (no).

endheader
time	pelvis_tilt	pelvis_list	pelvis_rotation	pelvis_tx	pelvis_ty	pelvis_tz	hip_flexion_r	hip_adduction_r	hip_rotation_r	knee_angle_r	ankle_angle_r	subtalar_angle_r	mtp_angle_r	hip_flexion_l	hip_adduction_l	hip_rotation_l	knee_angle_l	ankle_angle_l	subtalar_angle_l	mtp_angle_l	lumbar_extension	lumbar_bending	lumbar_rotation	arm_flex_r	arm_add_r	arm_rot_r	elbow_flex_r	pro_sup_r	wrist_flex_r	wrist_dev_r	arm_flex_l	arm_add_l	arm_rot_l	elbow_flex_l	pro_sup_l	wrist_flex_l	wrist_dev_l
10	2.80521	1.41783	-0.817568	0.673452	1.21123	0.936926	-0.00380331	0.151611	-0.176926	0.589486	-0.142109	0	0	0.281354	-0.035685	0.0773904	0.2956	-0.332239	0	0	-0.230142	0.0975101	0.0115825	1.17834	-0.438123	1.11524	0.662896	1.5708	0	0	0.265965	-0.805387	0.25178	1.14266	1.5708	0	0
10.01	2.83348	1.41393	-0.837789	0.674561	1.20465	0.937966	-0.00685798	0.153077	-0.175753	0.578706	-0.145875	0	0	0.280602	-0.0358399	0.0742594	0.312355	-0.326645	0	0	-0.240276	0.0994186	0.00131042	1.18733	-0.429912	1.12454	0.656792	1.5708	0	0	0.263525	-0.811197	0.242632	1.14803	1.5708	0	0
10.02	2.85579	1.41119	-0.852068	0.675515	1.19822	0.93899	-0.00830062	0.153532	-0.1759	0.568863	-0.148618	0	0	0.280573	-0.0354831	0.0753506	0.331212	-0.321229	0	0	-0.24708	0.100283	-0.0047086	1.19045	-0.427674	1.12572	0.654527	1.5708	0	0	0.270039	-0.815042	0.245329	1.14895	1.5708	0	0
10.03	2.87868	1.40873	-0.867246	0.676304	1.19193	0.94006	-0.00985023	0.152756	-0.177776	0.559393	-0.152088	0	0	0.28086	-0.0349318	0.0784708	0.35395	-0.315639	0	0	-0.253101	0.100889	-0.0102405	1.19255	-0.425862	1.12629	0.652539	1.5708	0	0	0.27627	-0.81823	0.248505	1.14955	1.5708	0	0
10.04	2.9	1.40687	-0.881205	0.677009	1.18582	0.94113	-0.0108922	0.151123	-0.180814	0.550355	-0.156028	0	0	0.282195	-0.0346126	0.0837936	0.38007	-0.311587	0	0	-0.257871	0.101049	-0.0149436	1.19319	-0.424906	1.12535	0.651069	1.5708	0	0	0.282838	-0.820859	0.252848	1.14981	1.5708	0	0
10.05	2.91962	1.4056	-0.893905	0.677641	1.17981	0.942141	-0.0109412	0.148696	-0.184523	0.542503	-0.160139	0	0	0.28451	-0.0344591	0.0911044	0.408878	-0.309011	0	0	-0.26139	0.100653	-0.0183906	1.19251	-0.425325	1.12321	0.650247	1.5708	0	0	0.290614	-0.822892	0.259235	1.14971	1.5708	0	0
10.06	2.93953	1.40482	-0.907464	0.678252	1.17389	0.943095	-0.0100791	0.14541	-0.188572	0.536413	-0.160805	0	0	0.28666	-0.0342747	0.0998307	0.438394	-0.310587	0	0	-0.264753	0.0999765	-0.0230417	1.19334	-0.423753	1.12452	0.648219	1.5708	0	0	0.293534	-0.825321	0.259988	1.15197	1.5708	0	0
10.07	2.95867	1.40397	-0.921277	0.678838	1.16811	0.944001	-0.0090761	0.141848	-0.192652	0.530522	-0.165219	0	0	0.288388	-0.0346511	0.108196	0.469824	-0.308579	0	0	-0.26729	0.098927	-0.0255323	1.19285	-0.423868	1.12504	0.646777	1.5708	0	0	0.298903	-0.827215	0.264541	1.15316	1.5708	0	0
10.08	2.97758	1.4033	-0.935974	0.679442	1.16248	0.94484	-0.00737067	0.137851	-0.195892	0.526008	-0.169557	0	0	0.289156	-0.0353297	0.116046	0.501845	-0.306092	0	0	-0.268714	0.0970658	-0.0257567	1.19088	-0.425642	1.12476	0.645819	1.5708	0	0	0.306977	-0.828515	0.273035	1.15318	1.5708	0	0
10.09	2.99649	1.40281	-0.951614	0.680054	1.15702	0.9456	-0.00505808	0.133632	-0.197641	0.522736	-0.17412	0	0	0.288707	-0.0362996	0.123077	0.53398	-0.301952	0	0	-0.268734	0.0940933	-0.0229095	1.18645	-0.43015	1.12203	0.645827	1.5708	0	0	0.319859	-0.828987	0.288207	1.15116	1.5708	0	0
10.1	3.01645	1.40166	-0.968973	0.68067	1.15162	0.946303	-0.00331642	0.129752	-0.19831	0.51983	-0.178951	0	0	0.286738	-0.0379064	0.128519	0.566789	-0.294379	0	0	-0.26482	0.087796	-0.00747251	1.1713	-0.449351	1.10847	0.650515	1.5708	0	0	0.361729	-0.823859	0.338954	1.1361	1.5708	0	0
10.11	3.0325	1.401	-0.983479	0.681386	1.14643	0.946913	-0.000887058	0.126483	-0.197579	0.516851	-0.184059	0	0	0.284635	-0.0405712	0.131743	0.599657	-0.28781	0	0	-0.252565	0.0742286	0.0356542	1.12652	-0.503018	1.05485	0.67437	1.5708	0	0	0.464912	-0.802862	0.467186	1.09223	1.5708	0	0
10.12	3.04931	1.36737	-1.01321	0.681366	1.14349	0.947412	-0.0374085	0.141461	-0.190998	0.502851	-0.187731	0	0	0.328542	-0.164844	-0.155885	0.797963	-0.33831	0	0	-0.274306	0.0909042	0.0577127	1.13309	-0.511499	1.07949	0.673067	1.5708	0	0	0.475807	-0.800611	0.487832	1.09031	1.5708	0	0
10.13	3.05762	1.36672	-1.02136	0.681843	1.13844	0.947791	-0.0341626	0.138658	-0.189802	0.501018	-0.188587	0	0	0.322981	-0.17098	-0.150622	0.82363	-0.336314	0	0	-0.274831	0.0898519	0.0557398	1.13418	-0.508102	1.08521	0.670791	1.5708	0	0	0.468837	-0.805074	0.480686	1.09781	1.5708	0	0
